M48
INCH,TZ
T1C0.016
T2C0.031
T3C0.039
T4C0.120
%
G90
G05
T1
X50197Y-53740
X52165Y-41929
X52165Y-42913
X53346Y-41929
X53346Y-42913
X54921Y-52953
X55906Y-38583
X57087Y-39764
X57677Y-55315
X58268Y-48622
X58661Y-50984
X58858Y-50000
X59646Y-52362
X60433Y-40157
X60433Y-41929
X60433Y-46260
X60827Y-52362
X62598Y-37598
X62598Y-48425
X63189Y-39764
X63976Y-37795
X63976Y-44094
X64173Y-36811
X64173Y-50197
X64961Y-50394
X65748Y-50591
X65945Y-36024
X66339Y-40945
X66929Y-52953
X67323Y-41142
X67520Y-42126
X68110Y-43701
X68898Y-43110
X69291Y-47047
X71260Y-40157
X71457Y-46063
X71654Y-43701
X72047Y-40157
X72047Y-46260
X72244Y-41339
X72244Y-43898
X72638Y-36614
X72638Y-46063
X72835Y-40157
X74016Y-46063
X74213Y-39764
X76575Y-46457
X76772Y-45276
X76969Y-47835
X77559Y-46457
X77756Y-41929
X77756Y-42913
X78150Y-47835
X79724Y-42717
X80118Y-45079
X80709Y-48425
X81496Y-48031
T2
X47244Y-47441
X47244Y-48228
X47244Y-49016
X47244Y-49803
X47244Y-50591
X47244Y-51378
X47244Y-52165
X47244Y-52953
X47244Y-53740
X47244Y-54528
X55906Y-47441
X55906Y-48228
X55906Y-49016
X55906Y-49803
X55906Y-50591
X55906Y-51378
X55906Y-52165
X55906Y-52953
X55906Y-53740
X55906Y-54528
T3
X47134Y-39764
X47244Y-43701
X47244Y-44701
X47244Y-45701
X48134Y-39764
X49134Y-39764
X50134Y-39764
X51134Y-39764
X52134Y-39764
X52614Y-37008
X53134Y-39764
X53614Y-37008
X54134Y-39764
X54614Y-37008
X55614Y-37008
X56614Y-37008
X57614Y-37008
X58614Y-37008
X59614Y-37008
X60614Y-37008
X61614Y-37008
X65157Y-56496
X66157Y-56496
X67157Y-56496
X71835Y-54528
X72835Y-54528
X74213Y-56496
X75165Y-36024
X75213Y-56496
X76165Y-36024
X76213Y-56496
X77165Y-36024
X79134Y-36614
X79134Y-37614
X79134Y-38614
X79134Y-39614
X79134Y-40614
X79134Y-41614
X80134Y-36614
X80134Y-37614
X80134Y-38614
X80134Y-39614
X80134Y-40614
X80134Y-41614
T4
X47835Y-36220
X47835Y-56496
X80709Y-56496
T0
M30
