G04 #@! TF.FileFunction,Soldermask,Bot*
%FSLAX46Y46*%
G04 Gerber Fmt 4.6, Leading zero omitted, Abs format (unit mm)*
G04 Created by KiCad (PCBNEW 4.0.5) date 04/17/17 10:09:57*
%MOMM*%
%LPD*%
G01*
G04 APERTURE LIST*
%ADD10C,0.100000*%
%ADD11C,4.464000*%
%ADD12R,1.750000X1.750000*%
%ADD13O,1.750000X1.750000*%
%ADD14R,2.100000X2.100000*%
%ADD15O,2.100000X2.100000*%
G04 APERTURE END LIST*
D10*
D11*
X205000000Y-143500000D03*
X121500000Y-143500000D03*
X121500000Y-92000000D03*
D12*
X120000000Y-120500000D03*
D13*
X120000000Y-122500000D03*
X120000000Y-124500000D03*
X120000000Y-126500000D03*
X120000000Y-128500000D03*
X120000000Y-130500000D03*
X120000000Y-132500000D03*
X120000000Y-134500000D03*
X120000000Y-136500000D03*
X120000000Y-138500000D03*
D12*
X142000000Y-120500000D03*
D13*
X142000000Y-122500000D03*
X142000000Y-124500000D03*
X142000000Y-126500000D03*
X142000000Y-128500000D03*
X142000000Y-130500000D03*
X142000000Y-132500000D03*
X142000000Y-134500000D03*
X142000000Y-136500000D03*
X142000000Y-138500000D03*
D14*
X137500000Y-101000000D03*
D15*
X134960000Y-101000000D03*
X132420000Y-101000000D03*
X129880000Y-101000000D03*
X127340000Y-101000000D03*
X124800000Y-101000000D03*
X122260000Y-101000000D03*
X119720000Y-101000000D03*
D14*
X156500000Y-94000000D03*
D15*
X153960000Y-94000000D03*
X151420000Y-94000000D03*
X148880000Y-94000000D03*
X146340000Y-94000000D03*
X143800000Y-94000000D03*
X141260000Y-94000000D03*
X138720000Y-94000000D03*
X136180000Y-94000000D03*
X133640000Y-94000000D03*
D14*
X120000000Y-111000000D03*
D15*
X120000000Y-113540000D03*
X120000000Y-116080000D03*
D14*
X185000000Y-138500000D03*
D15*
X182460000Y-138500000D03*
D14*
X201000000Y-93000000D03*
D15*
X203540000Y-93000000D03*
X201000000Y-95540000D03*
X203540000Y-95540000D03*
X201000000Y-98080000D03*
X203540000Y-98080000D03*
X201000000Y-100620000D03*
X203540000Y-100620000D03*
X201000000Y-103160000D03*
X203540000Y-103160000D03*
X201000000Y-105700000D03*
X203540000Y-105700000D03*
D14*
X196000000Y-91500000D03*
D15*
X193460000Y-91500000D03*
X190920000Y-91500000D03*
D14*
X188500000Y-143500000D03*
D15*
X191040000Y-143500000D03*
X193580000Y-143500000D03*
D14*
X165500000Y-143500000D03*
D15*
X168040000Y-143500000D03*
X170580000Y-143500000D03*
M02*
